<?xml version="1.0" encoding="iso-8859-1"?>
<svg height="800px" width="800px" version="1.1" id="Layer_1" xmlns="http://www.w3.org/2000/svg" xmlns:xlink="http://www.w3.org/1999/xlink" 
	 viewBox="0 0 389.689 389.689" xml:space="preserve">
<g>
	<path style="fill:#56ACE0;" d="M64.776,121.923c6.529,4.848,12.477,10.279,18.424,15.709
		c-5.947,11.378-10.279,22.238-12.477,32.517C66.392,158.255,62.578,137.632,64.776,121.923z"/>
	<path style="fill:#56ACE0;" d="M94.061,118.691c-8.081-7.046-16.226-13.511-24.824-20.558c1.358-4.202,3.038-8.339,4.848-12.347
		c0.129-0.323,0.259-0.582,0.453-0.905c4.008-8.145,8.986-15.838,14.675-22.626l27.669,27.669
		C108.154,99.168,100.525,108.929,94.061,118.691z"/>
	<path style="fill:#56ACE0;" d="M120.049,172.347l-29.285,29.285c-3.232-11.895-0.517-29.285,8.663-48.808
		C106.473,159.354,113.002,165.818,120.049,172.347z"/>
	<path style="fill:#56ACE0;" d="M154.764,208.097c-19.523,9.244-36.848,11.895-48.808,8.663l29.285-29.285
		C141.705,194.004,148.234,201.051,154.764,208.097z"/>
	<path style="fill:#56ACE0;" d="M132.525,74.796l-27.669-27.669c10.279-8.663,22.238-15.709,35.749-20.04
		c6.529,8.145,13.576,16.808,20.622,24.954C151.467,58.505,141.705,66.133,132.525,74.796z"/>
	<path style="fill:#56ACE0;" d="M132.525,105.697l27.087,27.087l-23.855,23.855c-8.145-8.145-16.808-15.709-24.954-23.273
		C116.816,124.121,123.863,114.877,132.525,105.697z"/>
	<path style="fill:#56ACE0;" d="M179.653,40.663c-5.43-5.947-10.279-12.477-15.709-18.424c0.065,0,0.129,0,0.259,0l0,0
		c2.069-0.194,4.202-0.323,6.271-0.388c0.194,0,0.323,0,0.453,0c8.986-0.194,24.824,0.582,41.244,6.4
		C201.891,30.319,191.03,34.651,179.653,40.663z"/>
	<path style="fill:#56ACE0;" d="M174.804,117.075l-27.669-27.087c9.244-8.663,19.006-15.709,28.186-21.657
		c7.564,8.663,15.709,16.808,23.273,24.954L174.804,117.075z"/>
	<path style="fill:#56ACE0;" d="M174.222,197.236c-7.564-8.663-15.709-16.808-23.273-24.954l23.855-24.372l27.669,27.669
		C193.228,184.242,183.467,191.289,174.222,197.236z"/>
	<path style="fill:#56ACE0;" d="M217.083,160.388l-27.087-27.669l23.855-23.855c8.145,8.145,16.808,15.709,24.954,23.273
		C232.792,141.446,225.745,150.691,217.083,160.388z"/>
	<path style="fill:#56ACE0;" d="M194.844,57.471c19.523-9.244,36.848-11.96,48.808-8.663l-29.285,29.285
		C207.838,71.499,201.374,64.517,194.844,57.471z"/>
	<path style="fill:#56ACE0;" d="M217.6,190.772l27.669,27.604c-6.982,5.883-14.998,11.055-23.531,15.127
		c-0.065,0.065-0.194,0.065-0.259,0.129c-3.879,1.81-7.952,3.426-12.024,4.719c-6.465-8.081-13.511-16.743-20.558-24.824
		C198.659,206.998,208.42,199.434,217.6,190.772z"/>
	<path style="fill:#56ACE0;" d="M229.56,93.22l29.285-29.285c3.232,11.895,0.517,29.285-8.663,48.808
		C243.071,106.214,236.541,99.749,229.56,93.22z"/>
	<path style="fill:#56ACE0;" d="M255.547,146.877c8.081,6.982,16.226,13.511,24.824,20.493c-0.97,3.103-2.133,6.077-3.426,9.051
		c-4.267,9.568-9.956,18.489-16.549,26.828l-27.669-27.669C241.455,166.4,249.018,156.638,255.547,146.877z"/>
	<path style="fill:#56ACE0;" d="M285.867,132.784c0,3.232-0.129,6.4-0.388,9.568c-0.065,0.259-0.065,0.453-0.129,0.711
		c-5.947-4.913-12.477-10.279-18.424-15.709c5.948-11.313,9.697-22.044,12.412-32.323c0.711,1.939,1.358,3.943,1.939,5.947l0,0
		c2.78,9.438,4.396,19.394,4.59,29.737C285.867,131.426,285.867,132.073,285.867,132.784z"/>
</g>
<polygon style="fill:#FFC10D;" points="104.339,347.41 94.061,368.549 255.547,368.549 245.269,347.41 "/>
<path style="fill:#194F82;" d="M174.804,0C101.624,0,42.02,59.604,42.02,132.784s59.604,132.784,132.784,132.784
	s132.784-59.604,132.784-132.784S247.984,0,174.804,0z M250.117,112.743c-7.046-6.529-13.576-12.994-20.622-19.523l29.285-29.285
	C262.077,75.895,259.362,93.22,250.117,112.743z M159.612,132.784l-23.855,23.855c-8.145-8.145-16.808-15.709-24.954-23.273
	c5.947-9.244,12.994-18.424,21.657-27.669L159.612,132.784z M147.135,89.988c9.244-8.663,19.006-15.709,28.186-21.657
	c7.564,8.663,15.709,16.808,23.273,24.954l-23.79,23.79L147.135,89.988z M174.804,147.976l27.669,27.669
	c-9.244,8.663-18.941,15.709-28.186,21.657c-7.564-8.663-15.709-16.808-23.273-24.954L174.804,147.976z M189.996,132.784
	l23.855-23.855c8.145,8.145,16.808,15.709,24.954,23.273c-5.947,9.244-12.994,18.424-21.657,28.186L189.996,132.784z
	 M243.653,48.743l-29.285,29.285c-6.529-6.529-12.994-13.576-19.523-20.622C214.368,48.226,231.693,45.511,243.653,48.743z
	 M212.17,28.186c-10.279,2.198-21.139,6.529-32.517,12.477c-5.43-5.947-10.279-12.477-15.709-18.424
	C167.758,21.657,189.414,20.04,212.17,28.186z M140.671,27.087c6.529,8.145,13.576,16.808,20.622,24.954
	c-9.762,6.529-19.523,14.093-28.703,22.756l-27.669-27.669C115.2,38.465,127.095,31.418,140.671,27.087z M89.147,62.319
	l27.669,27.669c-8.663,9.244-16.291,18.941-22.756,28.703c-8.145-7.046-16.291-13.576-24.954-20.622
	C73.438,85.075,80.485,72.598,89.147,62.319z M70.723,170.149c-4.331-11.96-8.145-32.517-5.947-48.226
	c6.529,4.848,12.477,10.279,18.424,15.709C77.253,149.01,72.921,159.871,70.723,170.149z M99.491,152.824
	c7.046,6.529,13.576,12.994,20.622,19.523l-29.349,29.285C87.531,189.673,90.246,172.347,99.491,152.824z M105.956,216.76
	l29.285-29.285c6.529,6.529,12.994,13.576,19.523,20.622C135.24,217.341,117.915,220.057,105.956,216.76z M185.535,243.329
	c-0.065,0-0.194,0-0.259,0.065c-3.426,0.323-6.917,0.517-10.473,0.517c-12.865,0-25.212-2.198-36.719-6.206
	c-0.194-0.065-0.453-0.194-0.646-0.259c6.982-1.487,14.287-3.943,21.786-7.305c3.491-1.551,7.111-3.297,10.731-5.172
	c5.43,5.947,10.279,12.477,15.709,18.424C185.6,243.329,185.535,243.329,185.535,243.329z M209.455,238.481
	c-6.529-8.145-13.576-16.808-20.622-24.954c9.762-6.529,19.523-14.093,28.703-22.756l27.733,27.604
	C234.925,227.103,222.513,234.149,209.455,238.481z M260.396,203.248l-27.669-27.669c8.663-9.244,16.291-18.941,22.756-28.703
	c8.145,7.046,16.226,13.576,24.954,20.558C276.17,180.493,269.059,192.388,260.396,203.248z M266.925,127.354
	c5.947-11.378,9.762-22.238,12.477-32.517c4.331,11.895,8.145,37.366,5.947,48.226C279.402,138.214,272.873,132.784,266.925,127.354
	z"/>
<path style="fill:#56ACE0;" d="M159.224,230.077c-7.499,3.297-14.804,5.818-21.786,7.305c0.194,0.129,0.453,0.194,0.646,0.259
	c11.507,4.008,23.855,6.206,36.719,6.206c3.556,0,6.982-0.194,10.473-0.517c0.065,0,0.194,0,0.259-0.065c0.065,0,0.065,0,0.129,0
	c-5.43-5.947-10.279-12.477-15.709-18.424C166.271,226.844,162.715,228.525,159.224,230.077z"/>
<g>
	<path style="fill:#194F82;" d="M185.341,243.394c0.065,0,0.129,0,0.194-0.065c-0.065,0-0.194,0-0.259,0.065
		C185.277,243.394,185.277,243.394,185.341,243.394z"/>
	<path style="fill:#194F82;" d="M169.891,224.905L169.891,224.905c5.43,5.947,10.279,12.477,15.709,18.424l0,0
		C180.234,237.382,175.321,230.853,169.891,224.905z"/>
	<path style="fill:#194F82;" d="M159.224,230.077c-7.499,3.297-14.804,5.818-21.786,7.305c0.194,0.065,0.388,0.194,0.582,0.259
		h0.065c-0.194-0.065-0.453-0.194-0.646-0.259C144.42,235.895,151.661,233.438,159.224,230.077z"/>
	<path style="fill:#194F82;" d="M281.277,101.042c2.263,8.663,4.137,20.234,4.59,29.737
		C285.673,120.436,284.121,110.481,281.277,101.042z"/>
	<path style="fill:#194F82;" d="M297.244,254.707c67.232-67.232,67.232-177.196,0-244.428c-4.331-4.331-10.861-4.331-15.192,0
		c-4.331,4.331-4.331,10.861,0,15.192c59.087,59.087,59.087,155.022,0,213.527c-59.087,59.087-155.022,59.087-213.527,0
		c-4.331-4.331-10.861-4.331-15.192,0c-4.331,4.331-4.331,10.861,0,15.192c30.901,30.901,70.982,47.709,111.127,50.424v20.622
		H97.228c-4.331,0-8.145,2.198-9.762,5.947L66.844,373.98c-3.232,5.947,1.099,15.192,9.762,15.709h195.62
		c8.663,0,12.994-9.244,9.762-15.709l-20.622-42.796c-1.616-3.814-5.43-5.947-9.762-5.947H185.6v-20.622
		C226.263,302.416,265.826,285.608,297.244,254.707z M245.269,347.41l10.279,21.139H94.061l10.279-21.139H245.269z"/>
</g>
</svg>